<?xml version="1.0" encoding="UTF-8"?><svg id="Capa_1" xmlns="http://www.w3.org/2000/svg" viewBox="0 0 292 287.5"><defs><style>.cls-1{fill:#fff;}.cls-2{fill:#87d0f8;}.cls-3{fill:#25a9f2;}</style></defs><g><path class="cls-1" d="M188.56,107.42l2.19-2.19c-.79,.67-1.52,1.4-2.19,2.19Z"/><path class="cls-3" d="M51.24,50.53c-.7,.7-1.4,1.41-2.09,2.12,.76-.62,1.47-1.31,2.09-2.12Z"/><g id="mapa_con_trazo"><path class="cls-1" d="M230.5,110.34c-1.15,0-2.23-.56-2.9-1.5l-5.17-7.36-3.37-3.37-7.36-5.17c-.8-.56-1.34-1.44-1.47-2.42-.13-.97,.15-1.96,.77-2.72,.68-.82,1.67-1.29,2.73-1.29,.4,0,.79,.07,1.17,.2l8.15,2.85,14.19-16.49-21-14.39c-.58-.34-1-.91-1.15-1.57-.17-.71,0-1.46,.43-2.04l3.32-4.42c.47-.62,1.2-.98,1.97-.98,.25,0,.49,.04,.73,.11l15.4,4.14,1.12-1.38c.99-1.21,2.45-1.9,4.01-1.9,1.19,0,2.36,.42,3.28,1.17,1.58,1.3,2.19,3.35,1.75,5.21l4.94,1.54,5.12-5.48c.68-.73,1.26-1.4,1.81-2.03,1.72-2,3.21-3.72,6.18-5.37,2.24-1.25,4.74-1.96,6.85-1.96,1.59,0,2.84,.4,3.61,1.17,1.81,1.81,1.48,6.41-.77,10.47-1.66,3-3.4,4.51-5.41,6.25-.62,.54-1.29,1.12-2.01,1.79l-5.45,5.09,1.54,4.94c.4-.1,.8-.15,1.21-.15,1.56,0,3.01,.69,4,1.89,.88,1.07,1.28,2.42,1.15,3.79-.14,1.38-.8,2.62-1.87,3.49l-1.38,1.12,4.16,15.46c.29,.92-.06,2.01-.89,2.64l-4.42,3.32c-.43,.32-.94,.5-1.48,.5h0c-.88,0-1.68-.46-2.12-1.21l-14.11-20.65-16.76,13.88,2.84,8.12c.49,1.4,.05,2.96-1.09,3.9-.63,.52-1.43,.8-2.24,.8Z"/><path class="cls-2" d="M272,45.54c1.09,0,1.92,.24,2.33,.64,.99,.99,.98,4.59-1.07,8.31-1.99,3.6-4.07,4.79-7.07,7.6l-6.28,5.87,2.51,8.07,.19-.16c.62-.51,1.37-.76,2.12-.76,.97,0,1.93,.42,2.6,1.23,1.18,1.44,.97,3.55-.47,4.73l-2.29,1.87,4.47,16.6c.08,.26-.01,.55-.23,.71l-4.42,3.33c-.12,.09-.26,.13-.39,.13-.24,0-.47-.13-.58-.36l-15.28-22.36-19.26,15.95,3.26,9.32c.24,.68,.03,1.44-.53,1.9h0c-.32,.26-.71,.39-1.09,.39-.54,0-1.07-.25-1.41-.73l-5.26-7.49-3.59-3.59-7.49-5.26c-.82-.58-.98-1.73-.34-2.5h0c.33-.41,.82-.63,1.33-.63,.19,0,.38,.03,.57,.1l9.32,3.26,16.32-18.96-22.73-15.58c-.36-.18-.47-.65-.23-.97l3.33-4.42c.13-.17,.32-.26,.52-.26,.06,0,.13,0,.19,.03l16.6,4.47,1.87-2.29c.66-.81,1.63-1.23,2.6-1.23,.75,0,1.5,.25,2.13,.76,1.43,1.17,1.64,3.28,.47,4.72l-.16,.19,8.07,2.51,5.89-6.31c2.8-2.99,3.97-5.06,7.54-7.06,2.2-1.23,4.37-1.73,5.97-1.73m0-3.63h0c-2.45,0-5.2,.78-7.73,2.19-3.24,1.81-4.91,3.73-6.67,5.77-.55,.63-1.11,1.29-1.76,1.98l-4.34,4.65-2.44-.76c-.02-1.99-.89-3.97-2.55-5.32-1.25-1.02-2.82-1.59-4.43-1.59-2.11,0-4.08,.94-5.41,2.57l-.38,.47-14.29-3.85c-.38-.11-.78-.16-1.18-.16-1.34,0-2.62,.64-3.42,1.71l-3.33,4.42c-.76,1.01-1.04,2.3-.75,3.54,.26,1.13,.96,2.09,1.93,2.69l19.28,13.22-12.06,14.02-6.98-2.44c-.57-.2-1.16-.3-1.77-.3-1.61,0-3.11,.71-4.14,1.95-.94,1.15-1.37,2.65-1.17,4.12s1.01,2.8,2.23,3.66l7.23,5.08,3.15,3.15,5.08,7.23c1,1.43,2.64,2.28,4.38,2.28,1.23,0,2.44-.43,3.39-1.22,1.73-1.42,2.39-3.79,1.66-5.9l-2.42-6.93,14.25-11.8,12.96,18.96c.77,1.27,2.15,2.05,3.66,2.05,.92,0,1.84-.31,2.57-.86l4.42-3.32c1.41-1.06,2.03-2.9,1.54-4.6l-3.85-14.29,.47-.38c1.45-1.18,2.35-2.86,2.53-4.72,.19-1.86-.37-3.68-1.55-5.12-1.32-1.6-3.25-2.53-5.33-2.55l-.76-2.43,4.62-4.31c.69-.65,1.34-1.21,1.96-1.75,2.06-1.78,4-3.47,5.81-6.75,2.32-4.19,3.22-9.88,.46-12.63-1.11-1.11-2.8-1.7-4.89-1.7h0Z"/></g><circle class="cls-3" cx="144.65" cy="144.49" r="132.42"/><g id="mapa"><g><path class="cls-2" d="M38.17,74.95c-1.42,3.9-4.01,6.22-3.52,10.76,5.62,1.61,3.18-8.06,7.92-8.56,1.5,3.61,.51,10.33,.09,14.26-.59,5.41,.33,4.74,3.67,9.39,2.64,3.69,6.53,8.15,11.65,8.73,4.69,.53,9.38,3.43,9.85,7.31,1.57,.84,8.54,8.43,10.19,8.86,2.39,.61,2.39-2.7,4.65-.15,3.78,4.26-4.78,15.38-6.32,19.22-2.24,5.62-2.57,13.87,2.92,17.9,2.83,2.07,5.83,3.06,6.75,6.82,.85,3.47,.19,6.37,1.78,9.65,2.49,5.12,2.13,6.82,6.18,10.73,5.3,5.14-3.09,11.81-3.09,19.08s17.04,13.42,18.09,20.39c1.07,7.19,3.25,13.86,4.82,20.81,1.18,5.23,10.42,.65,9.95-1.74-.91-4.73-.86-7.5,2.38-11.62,1.15-1.45,2.72-2.65,3.9-4.1,2.29-2.82,.53-1.99,.43-5.08-.12-3.86,1.1-1.97,3.5-3.17,1.25-.62,2.63-2.51,3.59-3.47,2.1-2.11,5.33-4.64,6.95-7.15,1.82-2.82,1.6-6.75,3.46-9.66,2.15-3.34,5.19-3.35,8.19-5.53,3.89-2.81,2.28-5.79,2.99-9.66,1.18-6.47,4.21-13.6,8.42-18.75,5.31-6.49,7.59-12,1.13-18.23-3.19-3.07-4.85-2.26-9.08-3.33-3.23-.82-6.13-3.1-9.41-3.49-1.97-.23-3.13,.45-4.93,0-1.67-.42-1.46-1.41-3.23-1.39-2.63,.03-6.31,5.34-8.54,1.95-1.24-1.9-23.36-30.51-25.86-30.48-2.25,.03-3.74,1.04-6.18,.77-2.13-.23-4.43-1.87-6.72-1.55-1.53,.2-3.8,2.13-5.13,2.85-3.5,1.92-5.22-.58-9.08,.12-6,1.09-9.09,2.76-8.74-2.61l-.89-1.74c2.23-5.99,3.23-6.41-1.18-7.87-.61-4.27,8.53-7.31-2.48-12-4.59-.23-9.59,12.27-13.48,6.86-2.56-3.57,1.34-13.56,3.59-16.58,2.27-3.05,13.07-5.09,14.24-2.52,1.27,2.8,6.64,2.43,7.01,5.61,3.87-.87,2.86-5.63,2.7-8.18-.29-4.27,2.03-3.95,4.28-7.02,2.04-2.8,2.36-6,4.91-8.71,1.99-2.11,4.32-4.34,6.51-6.28,2.49-2.22,5.29-2.02,7.85-3.65,3.88-2.49-1.26-7.1,4.47-6.76,2.03,.13,1.02,1.35,3.72,.76,1.14-.26,3.26-1.27,4.46-1.74,5.46-2.15,1.58-2.72-.92-5.52-3.19-3.56,1.32-2.93,4.61-3.47,2.41-.39,1.9-1.15,4.02,.22,1.86,1.21,.76,2.82,3.48,2.74,5.17-.17,1.59-5.19,.43-6.86-1.97-2.85-2.47-4.83-6.63-4.95,.39-1.28,.45-2.97-.14-4.21-3.5,.45-4.11-2.02-6.76-2.99-4.47-1.64-3.76,1.91-5.58,4.32-1.89,2.49-5.48,2.06-6.87,5.1-1.43,3.16-3.49-8.18,.46-8.66,3.06-.37,4.69-2.57,6.72-4.13-28.18,7.55-52.65,24.15-70.09,46.51-.23,.68-.43,1.34-.59,1.96-.79,3.09-.31,6.83-1.43,9.91Z"/><path class="cls-2" d="M182.95,17.7c1.75,2.48,2.93,4.72,6.32,5.71,2.03,.6,8.62,.18,5.67,4.9-2.72,4.36-5.26-1.08-6.48-2.36-1.68-1.77-6.81-3.59-6.84,.64-.04,6.32,14.59,4.65,11.14,11.74,1.7,.93,5.08,2.44,4.4,4.96-.84,3.1-4.85,1.33-4.95,5.26-.14,5.56,5.87,9.86,11.73,7.6,6.25-2.4,3.92,4.88-.6,7.56-1.31,.78-2.67,.91-3.6,2.3-1.6,2.37,.48,2.88-.09,5.06-.81,3.11-4.99,4.71-6.34,7.23-3.26,6.06,2.42,14.27,1.31,20.89-.62,3.67-4.83,7.81-3.42,10.79,.6,1.28,2.88,2.3,3.7,3.81,.74,1.37,1,3.21,1.99,4.62,3.24,4.58,7.96,9.63,11.8,13.87,2.18,2.41,5.28,2.98,8.77,2.12,2.88-.7,7.27-1.83,9.98-3.18,3.62-1.82,4.19-4.17,7.83-2.77,2.9,1.13,5.34,4.7,8.93,1.49,2.73,2.6-.65,7.48-1.42,10.54-.99,3.92,.89-.61,11.62,4.27,13.95,6.34,14.14,24.62,20.38,24.28,1.49-7.96,2.28-16.17,2.28-24.56,0-59.81-39.66-110.35-94.11-126.78Z"/></g></g><g><polygon class="cls-1" points="67.95 223.39 103.91 223.39 103.91 182.71 67.95 146.75 67.95 223.39"/><polygon class="cls-1" points="221.35 223.39 185.39 223.39 185.39 182.71 221.35 146.75 221.35 223.39"/></g><path class="cls-1" d="M215.95,104.51c-7.05-6.79-18.26-6.71-25.21,.24l-37.44,37.44c-4.52,4.52-11.86,4.52-16.38,0L47.69,54.2c-8.3,8.91-15.4,18.96-21.01,29.9l105.56,104.33c3.09,3.09,7.2,4.96,11.57,5.24h.2c5.19,.36,10.27-1.56,13.95-5.23l57.91-57.91c7.13-7.13,7.35-19.03,.09-26.03Z"/></g><g id="mapa_blanco"><path class="cls-1" d="M264.38,103.56l4.42-3.33c.22-.17,.31-.45,.23-.71l-4.47-16.6,2.29-1.87c1.44-1.17,1.65-3.29,.47-4.73h0c-1.17-1.43-3.28-1.64-4.72-.47l-.19,.16-2.51-8.07,6.28-5.87c3.01-2.81,5.08-4,7.07-7.6,2.06-3.72,2.06-7.32,1.07-8.31-.99-.99-4.58-.97-8.29,1.09-3.58,1.99-4.75,4.06-7.54,7.06l-5.89,6.31-8.07-2.51,.16-.19c1.17-1.43,.96-3.54-.47-4.72h0c-1.44-1.18-3.55-.97-4.73,.47l-1.87,2.29-16.6-4.47c-.26-.08-.55,.01-.71,.23l-3.33,4.42c-.24,.32-.14,.79,.23,.97l22.73,15.58-16.32,18.96-9.32-3.26c-.68-.24-1.44-.03-1.9,.53h0c-.64,.77-.48,1.93,.34,2.5l7.49,5.26,3.59,3.59,5.26,7.49c.58,.82,1.73,.98,2.5,.34h0c.56-.46,.77-1.22,.53-1.9l-3.26-9.32,19.26-15.95,15.28,22.36c.18,.36,.65,.47,.97,.22Z"/></g></svg>